<?xml version="1.0" encoding="UTF-8"?><svg version="1.1" viewBox="0 0 24 24" xmlns="http://www.w3.org/2000/svg" xmlns:xlink="http://www.w3.org/1999/xlink"><path d="M15.579 15.726l-.531-2.953 2.952-.531 .531 2.953 3.937-.708 -1.948-10.827 -3.937.708 .531 2.953 -2.953.531 -.53-2.952 -3.937.709 1.948 10.826Zm7.244.729l-11.454 2.061c-.018-.024-.035-.049-.053-.074 -.077-.105-.155-.208-.243-.304 -.06-.065-.124-.125-.189-.186 -.092-.086-.186-.167-.286-.242 -.071-.054-.144-.104-.219-.152 -.106-.068-.214-.128-.327-.184 -.079-.039-.157-.078-.24-.112 -.01-.004-.021-.006-.031-.01l-2.512-14.756c-.246-1.446-1.49-2.496-2.958-2.496h-3.311c-.552 0-1 .447-1 1 0 .553.448 1 1 1h3.312c.489 0 .904.35.986.832l2.428 14.263c-.648.147-1.219.46-1.666.895 -.322.314-.581.687-.763 1.098 -.272.617-.37 1.318-.242 2.032 .041.226.105.441.185.647 .027.068.063.13.094.196 .062.133.125.265.201.387 .045.072.097.137.147.205 .077.106.156.209.244.305 .06.065.124.125.188.185 .092.086.186.167.286.243 .071.054.144.104.219.152 .106.068.215.128.328.184 .079.039.157.078.239.111 .12.049.244.087.37.122 .082.023.161.049.245.066 .14.029.283.042.428.053 .074.006.147.019.222.02 .015 0 .029.004.044.004 .206 0 .414-.018.624-.056 .17-.031.328-.086.487-.139 .629-.21 1.163-.586 1.568-1.073 .117-.141.223-.288.317-.446 .189-.315.341-.653.423-1.017 .061-.268.078-.548.073-.832l11.19-2.013c.543-.098.905-.618.807-1.161 -.098-.545-.616-.907-1.161-.808Zm-14.058 5.521c-.09.016-.18.024-.27.024 -.724 0-1.344-.519-1.472-1.235 -.146-.814.397-1.596 1.211-1.742 .09-.016.18-.024.27-.024 .724 0 1.344.519 1.472 1.235 .146.814-.397 1.595-1.211 1.742Z" fill="#000"></path></svg>