<?xml version="1.0" encoding="UTF-8"?>
<svg width="483px" height="445px" viewBox="0 0 483 445" version="1.1" xmlns="http://www.w3.org/2000/svg" xmlns:xlink="http://www.w3.org/1999/xlink">
    <title>BackInStock</title>
    <defs>
        <linearGradient x1="50%" y1="0%" x2="50%" y2="100%" id="linearGradient-1">
            <stop stop-color="#F97316" offset="0%"></stop>
            <stop stop-color="#FACC15" offset="100%"></stop>
        </linearGradient>
    </defs>
    <g id="BackInStock" stroke="none" stroke-width="1" fill="none" fill-rule="evenodd">
        <path d="M291,-5.13248654 L412.702503,65.1324865 C443.642611,82.995766 462.702503,116.008468 462.702503,151.735027 L462.702503,292.264973 C462.702503,327.991532 443.642611,361.004234 412.702503,378.867513 L291,449.132487 C260.059892,466.995766 221.940108,466.995766 191,449.132487 L69.2974966,378.867513 C38.357389,361.004234 19.2974966,327.991532 19.2974966,292.264973 L19.2974966,151.735027 C19.2974966,116.008468 38.357389,82.995766 69.2974966,65.1324865 L191,-5.13248654 C221.940108,-22.995766 260.059892,-22.995766 291,-5.13248654 Z" id="Polygon" fill="url(#linearGradient-1)" transform="translate(241.000000, 222.000000) rotate(-30.000000) translate(-241.000000, -222.000000) "></path>
        <g id="icon" transform="translate(113.000000, 94.000000)" fill="#FFFFFF" fill-rule="nonzero">
            <path d="M166.175907,167.744 L160.51191,136.245333 L191.999893,130.581333 L197.66389,162.08 L239.658533,154.528 L218.879878,39.04 L176.885235,46.592 L182.549231,78.0906667 L151.050582,83.7546667 L145.397252,52.2666667 L103.402609,59.8293333 L124.181264,175.306667 L166.175907,167.744 Z M243.445197,175.52 L121.269266,197.504 C121.077266,197.248 120.895932,196.981333 120.703933,196.714667 C119.8826,195.594667 119.0506,194.496 118.111934,193.472 C117.471934,192.778667 116.789268,192.138667 116.095935,191.488 C115.114602,190.570667 114.111936,189.706667 113.04527,188.906667 C112.287937,188.330667 111.509271,187.797333 110.709272,187.285333 C109.578605,186.56 108.426606,185.92 107.221273,185.322667 C106.378607,184.906667 105.546608,184.490667 104.661275,184.128 C104.554608,184.085333 104.437275,184.064 104.330608,184.021333 L77.5359567,26.624 C74.9119582,11.2 61.6426322,0 45.9839743,0 L10.6666607,0 C4.778664,0 0,4.768 0,10.6666667 C0,16.5653333 4.778664,21.3333333 10.6666607,21.3333333 L45.994641,21.3333333 C51.2106381,21.3333333 55.6373023,25.0666667 56.5119684,30.208 L82.4106206,182.346667 C75.4986245,183.914667 69.4079612,187.253333 64.6399639,191.893333 C61.2052992,195.242667 58.442634,199.221333 56.5013018,203.605333 C53.5999701,210.186667 52.5546373,217.664 53.9199699,225.28 C54.357303,227.690667 55.0399693,229.984 55.8933021,232.181333 C56.181302,232.906667 56.5653017,233.568 56.8959682,234.272 C57.5573012,235.690667 58.2293008,237.098667 59.039967,238.4 C59.5199668,239.168 60.0746331,239.861333 60.6079662,240.586667 C61.429299,241.717333 62.2719652,242.816 63.2106314,243.84 C63.850631,244.533333 64.5332973,245.173333 65.2159636,245.813333 C66.1972964,246.730667 67.1999625,247.594667 68.2666285,248.405333 C69.0239615,248.981333 69.8026277,249.514667 70.6026272,250.026667 C71.7332933,250.752 72.8959593,251.392 74.101292,251.989333 C74.9439581,252.405333 75.7759577,252.821333 76.6506239,253.173333 C77.9306231,253.696 79.2532891,254.101333 80.5972883,254.474667 C81.4719545,254.72 82.3146207,254.997333 83.2106202,255.178667 C84.7039527,255.488 86.2292852,255.626667 87.775951,255.744 C88.5652839,255.808 89.3439501,255.946667 90.1439497,255.957333 C90.3039496,255.957333 90.4532828,256 90.6132827,256 C92.8106148,256 95.0292803,255.808 97.269279,255.402667 C99.0826113,255.072 100.767944,254.485333 102.463943,253.92 C109.173272,251.68 114.869269,247.669333 119.189267,242.474667 C120.437266,240.970667 121.567932,239.402667 122.570598,237.717333 C124.586597,234.357333 126.20793,230.752 127.082596,226.869333 C127.733262,224.010667 127.914595,221.024 127.861262,217.994667 L247.221195,196.522667 C253.013192,195.477333 256.874523,189.930667 255.82919,184.138667 C254.783858,178.325333 249.258527,174.464 243.445197,175.52 L243.445197,175.52 Z M93.4932811,234.410667 C92.5332817,234.581333 91.5732822,234.666667 90.6132827,234.666667 C82.8906204,234.666667 76.2772907,229.130667 74.9119582,221.493333 C73.3546257,212.810667 79.1466225,204.469333 87.8292843,202.912 C88.7892837,202.741333 89.7492832,202.656 90.7092827,202.656 C98.431945,202.656 105.045275,208.192 106.410607,215.829333 C107.96794,224.512 102.175943,232.842667 93.4932811,234.410667 Z" id="Shape"></path>
        </g>
    </g>
</svg>